<svg t="1610617138506" class="icon" viewBox="0 0 1024 1024" version="1.1"
    xmlns="http://www.w3.org/2000/svg" p-id="2714" width="200" height="200">
    <path d="M377.6 358.4m-42.666667 0a42.666667 42.666667 0 1 0 85.333334 0 42.666667 42.666667 0 1 0-85.333334 0Z" fill="#666767" p-id="2715"></path>
    <path d="M377.6 529.066667m-42.666667 0a42.666667 42.666667 0 1 0 85.333334 0 42.666667 42.666667 0 1 0-85.333334 0Z" fill="#666767" p-id="2716"></path>
    <path d="M526.933333 529.066667m-42.666666 0a42.666667 42.666667 0 1 0 85.333333 0 42.666667 42.666667 0 1 0-85.333333 0Z" fill="#666767" p-id="2717"></path>
    <path d="M526.933333 358.4m-42.666666 0a42.666667 42.666667 0 1 0 85.333333 0 42.666667 42.666667 0 1 0-85.333333 0Z" fill="#666767" p-id="2718"></path>
    <path d="M676.266667 529.066667m-42.666667 0a42.666667 42.666667 0 1 0 85.333333 0 42.666667 42.666667 0 1 0-85.333333 0Z" fill="#666767" p-id="2719"></path>
    <path d="M676.266667 358.4m-42.666667 0a42.666667 42.666667 0 1 0 85.333333 0 42.666667 42.666667 0 1 0-85.333333 0Z" fill="#666767" p-id="2720"></path>
    <path d="M825.6 358.4m-42.666667 0a42.666667 42.666667 0 1 0 85.333334 0 42.666667 42.666667 0 1 0-85.333334 0Z" fill="#666767" p-id="2721"></path>
    <path d="M1024 213.333333c0-36.266667-27.733333-64-64-64H64c-36.266667 0-64 27.733333-64 64v597.333334c0 36.266667 27.733333 64 64 64h896c36.266667 0 64-27.733333 64-64V213.333333z m-42.666667 597.333334c0 12.8-8.533333 21.333333-21.333333 21.333333H64c-12.8 0-21.333333-8.533333-21.333333-21.333333V213.333333c0-12.8 8.533333-21.333333 21.333333-21.333333h896c12.8 0 21.333333 8.533333 21.333333 21.333333v597.333334z" fill="#666767" p-id="2722"></path>
    <path d="M825.6 529.066667m-42.666667 0a42.666667 42.666667 0 1 0 85.333334 0 42.666667 42.666667 0 1 0-85.333334 0Z" fill="#666767" p-id="2723"></path>
    <path d="M846.933333 661.333333h-640c-12.8 0-21.333333 8.533333-21.333333 21.333334s8.533333 21.333333 21.333333 21.333333h640c12.8 0 21.333333-8.533333 21.333334-21.333333s-10.666667-21.333333-21.333334-21.333334z" fill="#666767" p-id="2724"></path>
    <path d="M228.266667 358.4m-42.666667 0a42.666667 42.666667 0 1 0 85.333333 0 42.666667 42.666667 0 1 0-85.333333 0Z" fill="#666767" p-id="2725"></path>
    <path d="M228.266667 529.066667m-42.666667 0a42.666667 42.666667 0 1 0 85.333333 0 42.666667 42.666667 0 1 0-85.333333 0Z" fill="#666767" p-id="2726"></path>
</svg>